<?xml version="1.0" encoding="utf-8"?>
<!-- Generator: Adobe Illustrator 19.1.0, SVG Export Plug-In . SVG Version: 6.00 Build 0)  -->
<svg version="1.1" id="Layer_1" xmlns="http://www.w3.org/2000/svg" xmlns:xlink="http://www.w3.org/1999/xlink" x="0px" y="0px"
	 viewBox="134 16.6 368 68.4" style="enable-background:new 134 16.6 368 68.4;" xml:space="preserve">
<style type="text/css">
	.st0{enable-background:new    ;}
	.st1{fill:#FFFFFF;}
</style>
<g class="st0">
	<path class="st1" d="M171.1,75.8h-11.9l-18.4-51.1h14.3l7.4,23.1c0.9,2.9,2.4,8.2,3,11.8h0.3c0.6-3.8,2-8.8,3-11.8l7.4-23h13.9
		L171.1,75.8z"/>
	<path class="st1" d="M217.6,23c16.9,0,26.9,13,26.9,27.2c0,14.8-11.5,27.2-27.1,27.2c-18.8,0-27.1-14.6-27.1-27.2
		C190.3,35.7,201.7,23,217.6,23z M217.3,65.4c7.7,0,13.5-6.6,13.5-15.1c0-8.4-5.2-15.1-13.3-15.1c-7.6,0-13.6,6.5-13.6,15.1
		C203.9,58.8,209.7,65.4,217.3,65.4z"/>
	<path class="st1" d="M257.8,36.1h-11.5V24.6h36.4v11.5h-11.5v39.7h-13.5V36.1z"/>
	<path class="st1" d="M299.5,24.6h12.7l18,51.1h-13.5l-3.3-10.3h-16.6l-3.3,10.3h-13.3L299.5,24.6z M299.6,56.6h10.9L307,45.6
		c-1-2.9-1.2-4-1.7-6.2h-0.4c-0.6,2.2-1,3.8-1.8,6.3L299.6,56.6z"/>
	<path class="st1" d="M377.4,75.8h-15.6l-13-19.3h-1.3v19.3H334V24.6h16.6c15.3,0,20.6,6.7,20.6,16c0,7.3-4.2,11.9-9.5,13.8
		L377.4,75.8z M351.1,35.1h-3.7v12.2h3.7c3.7,0,6.4-2.1,6.4-6C357.6,37.5,355.3,35.1,351.1,35.1z"/>
	<path class="st1" d="M430,46.5v3.5c0,11.4-6.9,27.1-26.3,27.1c-15.6,0-26.7-11.4-26.7-26.5c0-16.4,11.3-27.4,26.6-27.4
		c12.1,0,21.4,5.9,25,16.6h-14.5c-2.1-3.6-5.8-5.2-10-5.2c-6.6,0-13.5,4.9-13.5,15.9c0,9.8,5.6,15.4,14.1,15.4c5.9,0,10.2-4,11-8.6
		h-14.7V46.5H430z"/>
	<path class="st1" d="M437,24.6h13.4v51.1H437V24.6z"/>
	<path class="st1" d="M492.2,36.1h-18.7v9.5h17.9v10.7h-17.9v19.5H460V24.6h32.2V36.1z"/>
</g>
</svg>
